<?xml version="1.0" encoding="UTF-8" standalone="no"?>
<!-- Created with Inkscape (http://www.inkscape.org/) -->

<svg
   version="1.1"
   id="svg2"
   xml:space="preserve"
   width="1587.4"
   height="2245.04"
   viewBox="0 0 1587.4 2245.04"
   sodipodi:docname="banner.svg"
   inkscape:version="1.1.2 (b8e25be8, 2022-02-05)"
   xmlns:inkscape="http://www.inkscape.org/namespaces/inkscape"
   xmlns:sodipodi="http://sodipodi.sourceforge.net/DTD/sodipodi-0.dtd"
   xmlns="http://www.w3.org/2000/svg"
   xmlns:svg="http://www.w3.org/2000/svg"><defs
     id="defs6"><clipPath
       clipPathUnits="userSpaceOnUse"
       id="clipPath18"><path
         d="M 0,0 H 1190.55 V 1683.78 H 0 Z"
         id="path16" /></clipPath><clipPath
       clipPathUnits="userSpaceOnUse"
       id="clipPath28"><path
         d="M 0,0 H 1190.55 V 1683.779 H 0 Z"
         id="path26" /></clipPath><clipPath
       clipPathUnits="userSpaceOnUse"
       id="clipPath50"><path
         d="M 0,0 H 1190.55 V 1683.78 H 0 Z"
         id="path48" /></clipPath><clipPath
       clipPathUnits="userSpaceOnUse"
       id="clipPath74"><path
         d="M 0,0 H 1190.55 V 1683.779 H 0 Z"
         id="path72" /></clipPath><clipPath
       clipPathUnits="userSpaceOnUse"
       id="clipPath86"><path
         d="M 0,0 H 1190.55 V 1683.78 H 0 Z"
         id="path84" /></clipPath><clipPath
       clipPathUnits="userSpaceOnUse"
       id="clipPath126"><path
         d="M 0,0 H 1190.55 V 1683.779 H 0 Z"
         id="path124" /></clipPath><clipPath
       clipPathUnits="userSpaceOnUse"
       id="clipPath138"><path
         d="M 0,0 H 1190.55 V 1683.78 H 0 Z"
         id="path136" /></clipPath><clipPath
       clipPathUnits="userSpaceOnUse"
       id="clipPath206"><path
         d="M 0,0 H 1190.55 V 1683.779 H 0 Z"
         id="path204" /></clipPath><clipPath
       clipPathUnits="userSpaceOnUse"
       id="clipPath218"><path
         d="M 0,0 H 1190.55 V 1683.78 H 0 Z"
         id="path216" /></clipPath><clipPath
       clipPathUnits="userSpaceOnUse"
       id="clipPath266"><path
         d="M 0,0 H 1190.55 V 1683.779 H 0 Z"
         id="path264" /></clipPath><clipPath
       clipPathUnits="userSpaceOnUse"
       id="clipPath278"><path
         d="M 0,0 H 1190.55 V 1683.78 H 0 Z"
         id="path276" /></clipPath><clipPath
       clipPathUnits="userSpaceOnUse"
       id="clipPath330"><path
         d="M 0,0 H 1190.55 V 1683.779 H 0 Z"
         id="path328" /></clipPath><clipPath
       clipPathUnits="userSpaceOnUse"
       id="clipPath432"><path
         d="M 0,0 H 1190.55 V 1683.78 H 0 Z"
         id="path430" /></clipPath><clipPath
       clipPathUnits="userSpaceOnUse"
       id="clipPath444"><path
         d="m 1038.682,170.229 h 88.583 v 88.582 h -88.583 z"
         id="path442" /></clipPath><clipPath
       clipPathUnits="userSpaceOnUse"
       id="clipPath454"><path
         d="M 0,0 H 1190.55 V 1683.78 H 0 Z"
         id="path452" /></clipPath></defs><sodipodi:namedview
     id="namedview4"
     pagecolor="#ffffff"
     bordercolor="#666666"
     borderopacity="1.0"
     inkscape:pageshadow="2"
     inkscape:pageopacity="0.0"
     inkscape:pagecheckerboard="0"
     showgrid="false"
     inkscape:zoom="0.32026155"
     inkscape:cx="327.85703"
     inkscape:cy="1159.9894"
     inkscape:window-width="1496"
     inkscape:window-height="969"
     inkscape:window-x="2003"
     inkscape:window-y="65"
     inkscape:window-maximized="0"
     inkscape:current-layer="g8" /><g
     id="g8"
     inkscape:groupmode="layer"
     inkscape:label="Plakat Ringvorlesung Endfassung"
     transform="matrix(1.3333333,0,0,-1.3333333,0,2245.04)"><g
       id="g10" /><g
       id="g12"><g
         id="g14"
         clip-path="url(#clipPath18)"><path
           d="m 0,1176.377 h 1190.552 v 507.402 H 0 Z"
           style="fill:#9b9894;fill-opacity:1;fill-rule:nonzero;stroke:none"
           id="path20" /></g></g><g
       id="g22"
       transform="translate(0.002)"><g
         id="g24"
         clip-path="url(#clipPath28)"><path
           d="m 122.3177,1372.609 c 0,-108.377 87.074,-196.231 194.482,-196.231 107.412,0 194.488,87.854 194.488,196.231 0,108.38 -87.076,196.239 -194.488,196.239 -107.408,0 -194.482,-87.859 -194.482,-196.239"
           style="fill:#ffffff;fill-opacity:1;fill-rule:nonzero;stroke:none"
           id="path30" /><path
           d="M 128.8668,1683.78 H -2e-4 v -487.381 c 36.831,48.54 79.85,92.058 127.887,129.395 -3.639,15 -5.569,30.682 -5.569,46.816 0,75.523 42.278,141.08 104.259,173.888 -22.158,52.888 -55.78,99.713 -97.71,137.282"
           style="fill:#6a6460;fill-opacity:1;fill-rule:nonzero;stroke:none"
           id="path32" /><path
           d="m 857.0843,869.4403 c -272.903,0 -494.135,226.7147 -494.135,506.3817 0,279.667 221.232,506.382 494.135,506.382 272.9037,0 494.1347,-226.715 494.1347,-506.382 0,-279.667 -221.231,-506.3817 -494.1347,-506.3817"
           style="fill:#d81f26;fill-opacity:1;fill-rule:nonzero;stroke:none"
           id="path34" /><path
           d="m 316.7996,1568.848 c -32.562,0 -63.258,-8.076 -90.223,-22.35 18.297,-43.671 28.78,-91.488 29.69,-141.663 35.588,16.869 72.834,30.783 111.426,41.43 5.015,36.94 13.918,72.589 26.273,106.53 -23.657,10.329 -49.749,16.053 -77.166,16.053"
           style="fill:#90275a;fill-opacity:1;fill-rule:nonzero;stroke:none"
           id="path36" /><path
           d="m 226.5767,1546.498 c -61.98,-32.809 -104.259,-98.366 -104.259,-173.889 0,-16.133 1.93,-31.814 5.569,-46.816 39.611,30.787 82.622,57.353 128.38,79.042 -0.91,50.175 -11.393,97.992 -29.69,141.663"
           style="fill:#570d33;fill-opacity:1;fill-rule:nonzero;stroke:none"
           id="path38" /><path
           d="m 393.9655,1552.795 v 0 c -12.355,-33.941 -21.258,-69.59 -26.273,-106.53 38.462,10.611 78.26,17.976 119.085,21.784 -20.765,37.571 -53.412,67.544 -92.812,84.746"
           style="fill:#902b2f;fill-opacity:1;fill-rule:nonzero;stroke:none"
           id="path40" /><path
           d="m 551.6512,77.1376 c -382.945,0 -693.383,312.04 -693.383,696.961 0,384.9214 310.438,696.9604 693.383,696.9604 382.945,0 693.3838,-312.039 693.3838,-696.9604 0,-384.921 -310.4388,-696.961 -693.3838,-696.961"
           style="fill:#ffffff;fill-opacity:1;fill-rule:nonzero;stroke:none"
           id="path42" /></g></g><g
       id="g324"><g
         id="g326"
         clip-path="url(#clipPath330)"><path
           d="m 1188.425,1478.268 c -99.949,0 -186.995,-55.694 -232.3057,-138.006 102.7717,-74.31 184.4907,-176.206 234.4317,-294.888 v 432.886 c -0.706,0.01 -1.419,0.01 -2.126,0.01"
           style="fill:#902b2f;fill-opacity:1;fill-rule:nonzero;stroke:none"
           id="path332" /><path
           d="m 956.119,1340.262 c -21.174,-38.465 -33.239,-82.751 -33.239,-129.868 0,-147.942 118.889,-267.8744 265.545,-267.8744 0.707,0 1.421,0.003 2.126,0.008 v 102.8464 c -49.941,118.682 -131.66,220.578 -234.432,294.888"
           style="fill:#90275a;fill-opacity:1;fill-rule:nonzero;stroke:none"
           id="path334" /><path
           d="m 158.3619,158.3082 c -5.448,2.436 -11.459,3.924 -17.881,4.288 -4.354,0.264 -8.625,-0.016 -12.701,-0.77 -2.794,-0.517 -5.499,-1.25 -8.067,-2.209 l -3.914,-1.467 1.924,12.11 1.368,8.615 h 55.846 0.1 v 0.102 30.716 h -86.765 l -3.765,-22.894 -7.949,-48.348 -2.341,-14.233 31.664,-8.671 1.958,3.156 c 0.415,0.677 0.843,1.309 1.277,1.92 4.219,5.931 9.382,8.795 16.156,9.198 6.436,0.365 12.176,-1.932 16.238,-5.911 2.445,-2.395 4.28,-5.399 5.29,-8.803 0.581,-1.96 0.894,-4.049 0.886,-6.233 -0.098,-9.069 -5.47,-16.482 -13.201,-19.522 -2.731,-1.075 -5.754,-1.608 -8.947,-1.469 -6.137,0.269 -11.517,2.893 -14.986,7.072 l -2.001,2.312 -40.203,0.046 1.779,-5.426 c 2.667,-8.316 7.205,-15.921 13.207,-22.148 10.942,-11.339 25.573,-17.52 42.028,-17.566 3.615,0 7.214,0.247 10.779,0.74 2.353,0.326 4.692,0.757 7.009,1.305 5.469,1.291 10.485,3.105 15.03,5.382 18.775,9.409 29.396,26.845 29.575,49.187 0.04,5.348 -0.561,10.424 -1.705,15.178 -3.842,15.956 -13.951,28.201 -27.688,34.343"
           style="fill:#ffffff;fill-opacity:1;fill-rule:nonzero;stroke:none"
           id="path362" /><path
           d="m 639.1393,1591.429 -3.405,5.898 c -0.797,1.33 -2.244,2.208 -3.894,2.231 h -46.245 l 7.466,12.925 c 0.801,1.43 0.772,3.109 0.036,4.456 l 0.007,-0.01 -3.42,5.922 c -0.391,0.76 -0.985,1.412 -1.773,1.868 -0.79,0.459 -1.657,0.647 -2.512,0.612 h -6.805 c -1.549,-0.035 -3.033,-0.836 -3.869,-2.261 l -7.471,-12.918 -23.108,40.026 v -0.012 c -0.83,1.424 -2.302,2.224 -3.827,2.272 h -6.849 c -0.848,0.042 -1.713,-0.148 -2.51,-0.617 -0.782,-0.439 -1.376,-1.103 -1.78,-1.84 l -3.405,-5.91 c -0.735,-1.359 -0.783,-3.049 0.022,-4.481 l 23.12,-40.037 h -28.892 c -1.657,-0.023 -3.099,-0.901 -3.899,-2.231 l -3.407,-5.898 c -0.456,-0.712 -0.712,-1.555 -0.723,-2.471 0,-0.903 0.272,-1.757 0.735,-2.47 l 3.413,-5.925 h 0.005 c 0.807,-1.292 2.232,-2.172 3.876,-2.182 v -0.013 h 28.892 l -23.107,-40.044 c -0.818,-1.422 -0.77,-3.12 -0.03,-4.461 h -0.005 l 3.405,-5.922 c 0.404,-0.737 0.998,-1.389 1.78,-1.851 0.797,-0.451 1.662,-0.642 2.51,-0.606 h 6.849 -0.007 c 1.532,0.047 3.004,0.854 3.834,2.266 l 23.108,40.02 7.471,-12.925 c 0.836,-1.412 2.32,-2.219 3.869,-2.255 h 6.818 c 0.842,-0.047 1.702,0.156 2.499,0.617 0.788,0.452 1.382,1.093 1.779,1.863 l 3.414,5.912 h -0.007 c 0.736,1.352 0.765,3.037 -0.036,4.461 h 0.006 l -7.46,12.925 h 46.233 v 0.013 c 1.638,0.01 3.067,0.89 3.876,2.182 l 3.411,5.925 c 0.463,0.713 0.736,1.567 0.736,2.47 0,0.899 -0.273,1.759 -0.724,2.471"
           style="fill:#ffffff;fill-opacity:1;fill-rule:nonzero;stroke:none"
           id="path386" /><path
           d="m 661.4404,1560.174 v -15.014 h -17.541 v 15.014 h -3.931 v -34.642 h 3.931 v 16.186 h 17.541 v -16.186 h 3.939 v 34.642 z"
           style="fill:#ffffff;fill-opacity:1;fill-rule:nonzero;stroke:none"
           id="path388" /><path
           d="m 672.0966,1534.325 v 6.326 c 0,6.409 4.664,9.756 10.16,9.756 6.017,0 10.247,-3.536 10.247,-9.708 v -5.981 c 0,-6.361 -4.563,-9.816 -10.105,-9.816 -5.975,0 -10.302,3.252 -10.302,9.423 m 16.711,0.25 v 6.457 c 0,3.69 -2.184,6.313 -6.551,6.313 -4.035,0 -6.515,-2.374 -6.515,-6.504 v -6.409 c 0,-3.846 2.337,-6.421 6.657,-6.421 4.035,0 6.409,2.184 6.409,6.564"
           style="fill:#ffffff;fill-opacity:1;fill-rule:nonzero;stroke:none"
           id="path390" /><path
           d="m 697.7206,1534.764 v 5.449 c 0,6.456 4.177,10.193 10.1,10.193 5.589,0 9.625,-3.155 9.625,-8.45 v -0.627 h -3.502 v 0.818 c 0,2.73 -2.041,5.258 -6.07,5.258 -4.03,0 -6.415,-2.777 -6.415,-6.861 v -5.875 c 0,-3.941 2.089,-6.656 6.462,-6.656 4.029,0 6.023,2.48 6.023,5.196 v 0.689 h 3.502 v -0.546 c 0,-5.244 -3.888,-8.45 -9.525,-8.45 -6.07,0 -10.2,3.548 -10.2,9.862"
           style="fill:#ffffff;fill-opacity:1;fill-rule:nonzero;stroke:none"
           id="path392" /><path
           d="m 723.1897,1560.222 h 3.596 v -14.527 h 0.142 c 1.655,3.157 4.765,4.759 7.876,4.759 5.198,0 7.82,-3.395 7.82,-8.057 v -16.866 h -3.643 v 15.5 c 0,4.332 -2.036,6.266 -5.3,6.266 -3.691,0 -6.895,-2.766 -6.895,-7.382 v -14.384 h -3.596 z"
           style="fill:#ffffff;fill-opacity:1;fill-rule:nonzero;stroke:none"
           id="path394" /><path
           d="m 748.2255,1528.842 2.475,2.041 c 1.946,-1.993 4.277,-3.014 7.387,-3.014 2.913,0 5.929,1.507 5.929,4.368 0,2.728 -1.697,3.5 -5.057,4.13 l -2.811,0.581 c -4.232,0.83 -6.855,2.776 -6.855,6.279 0,4.224 3.448,7.286 8.746,7.286 3.691,0 6.606,-0.878 8.505,-3.062 l -2.482,-1.898 c -1.553,1.364 -3.453,2.136 -6.219,2.136 -2.966,0 -5.007,-1.602 -5.007,-3.928 0,-2.339 1.993,-3.11 5.298,-3.799 l 3.651,-0.772 c 3.588,-0.782 5.969,-2.728 5.969,-6.313 0,-5.304 -4.901,-7.927 -9.62,-7.927 -3.981,0 -7.625,1.068 -9.909,3.892"
           style="fill:#ffffff;fill-opacity:1;fill-rule:nonzero;stroke:none"
           id="path396" /><path
           d="m 772.6736,1534.764 v 5.449 c 0,6.456 4.184,10.193 10.107,10.193 5.589,0 9.623,-3.155 9.623,-8.45 v -0.627 h -3.5 v 0.818 c 0,2.73 -2.041,5.258 -6.077,5.258 -4.03,0 -6.409,-2.777 -6.409,-6.861 v -5.875 c 0,-3.941 2.09,-6.656 6.456,-6.656 4.036,0 6.03,2.48 6.03,5.196 v 0.689 h 3.5 v -0.546 c 0,-5.244 -3.891,-8.45 -9.53,-8.45 -6.07,0 -10.2,3.548 -10.2,9.862"
           style="fill:#ffffff;fill-opacity:1;fill-rule:nonzero;stroke:none"
           id="path398" /><path
           d="m 798.1489,1560.222 h 3.596 v -14.527 h 0.142 c 1.65,3.157 4.759,4.759 7.869,4.759 5.198,0 7.822,-3.395 7.822,-8.057 v -16.866 h -3.645 v 15.5 c 0,4.332 -2.041,6.266 -5.293,6.266 -3.691,0 -6.895,-2.766 -6.895,-7.382 v -14.384 h -3.596 z"
           style="fill:#ffffff;fill-opacity:1;fill-rule:nonzero;stroke:none"
           id="path400" /><path
           d="m 824.686,1533.067 v 16.854 h 3.643 v -15.49 c 0,-4.33 2.089,-6.218 5.348,-6.218 3.643,0 6.848,2.765 6.848,7.382 v 14.326 h 3.595 v -24.391 h -3.5 v 4.237 h -0.095 c -1.698,-3.216 -4.761,-4.817 -8.024,-4.817 -5.192,0 -7.815,3.501 -7.815,8.117"
           style="fill:#ffffff;fill-opacity:1;fill-rule:nonzero;stroke:none"
           id="path402" /><path
           d="m 851.6207,1531.513 v 28.709 h 3.643 v -28.852 c 0,-1.708 0.915,-3.014 3.157,-3.014 0.973,0 1.793,0.143 2.67,0.236 v -2.763 c -1.221,-0.392 -2.718,-0.582 -3.891,-0.582 -4.666,0 -5.579,3.441 -5.579,6.266"
           style="fill:#ffffff;fill-opacity:1;fill-rule:nonzero;stroke:none"
           id="path404" /><path
           d="m 865.1735,1534.812 v 5.15 c 0,6.707 4.57,10.444 10.445,10.444 5.399,0 9.671,-3.251 9.671,-9.566 v -3.832 h -16.377 v -2.529 c 0,-3.987 2.73,-6.467 7.002,-6.467 2.813,0 4.854,1.459 6.171,3.109 l 2.766,-1.65 c -2.184,-3.405 -5.685,-4.568 -9.187,-4.568 -5.968,0 -10.491,3.204 -10.491,9.909 m 16.521,4.711 v 1.412 c 0,3.693 -2.184,6.469 -6.266,6.469 -3.941,0 -6.516,-2.919 -6.516,-6.812 v -1.069 z"
           style="fill:#ffffff;fill-opacity:1;fill-rule:nonzero;stroke:none"
           id="path406" /><path
           d="m 905.4792,1560.175 h 13.695 c 6.517,0 11.76,-3.786 11.76,-10.884 0,-4.13 -2.182,-8.402 -6.846,-10.052 l 8.591,-13.708 h -7.038 l -8.116,12.971 h -5.59 v -12.971 h -6.456 z m 12.923,-16.224 c 3.739,0 6.221,1.792 6.221,5.388 0,4.082 -2.72,5.4 -6.316,5.4 h -6.372 v -10.788 z"
           style="fill:#ffffff;fill-opacity:1;fill-rule:nonzero;stroke:none"
           id="path408" /><path
           d="m 937.558,1560.174 h 5.922 v -12.83 h 0.155 c 1.649,2.387 4.271,3.548 6.846,3.548 5.591,0 8.7,-3.488 8.7,-9.423 v -15.939 h -5.934 v 14.432 c 0,3.739 -1.602,5.732 -4.616,5.732 -3.252,0 -5.151,-1.993 -5.151,-6.218 v -13.946 h -5.922 z"
           style="fill:#ffffff;fill-opacity:1;fill-rule:nonzero;stroke:none"
           id="path410" /><path
           d="m 964.8793,1535.108 v 4.854 c 0,7.003 5.245,10.884 11.416,10.884 5.388,0 10.741,-3.157 10.741,-9.768 v -4.807 h -15.986 v -1.364 c 0,-3.158 2.575,-4.997 5.732,-4.997 1.993,0 4.082,1.304 5.388,3.205 l 4.569,-2.623 c -1.946,-3.894 -5.875,-5.543 -10.253,-5.543 -6.113,0 -11.607,3.359 -11.607,10.159 m 16.223,5.293 v 0.677 c 0,3.405 -2.374,4.771 -4.807,4.771 -2.527,0 -5.245,-1.366 -5.245,-5.102 v -0.346 z"
           style="fill:#ffffff;fill-opacity:1;fill-rule:nonzero;stroke:none"
           id="path412" /><path
           d="m 993.125,1560.518 h 5.922 v -6.314 h -5.922 z m 0,-10.112 h 5.922 v -24.875 h -5.922 z"
           style="fill:#ffffff;fill-opacity:1;fill-rule:nonzero;stroke:none"
           id="path414" /><path
           d="m 1006.204,1550.407 h 5.78 v -3.062 h 0.095 c 1.65,2.385 4.272,3.548 7.038,3.548 5.589,0 8.698,-3.488 8.698,-9.422 v -15.939 h -5.922 v 14.432 c 0,3.738 -1.603,5.732 -4.616,5.732 -3.253,0 -5.151,-1.994 -5.151,-6.219 v -13.945 h -5.922 z"
           style="fill:#ffffff;fill-opacity:1;fill-rule:nonzero;stroke:none"
           id="path416" /><path
           d="m 1035.945,1560.174 h 7.881 l 8.936,-21.671 h 0.095 l 8.698,21.671 h 7.87 v -34.644 h -6.22 v 23.085 h -0.093 l -7.87,-19.096 h -5.103 l -7.868,19.001 h -0.107 v -22.99 h -6.219 z"
           style="fill:#ffffff;fill-opacity:1;fill-rule:nonzero;stroke:none"
           id="path418" /><path
           d="m 1075.275,1532.581 c 0,4.807 4.369,7.678 9.187,7.678 h 6.599 v 2.279 c 0,2.623 -1.745,3.738 -4.759,3.738 -2.576,0 -4.464,-0.865 -4.464,-2.467 v -0.878 h -5.35 v 0.675 c 0,5.448 5.197,7.288 9.861,7.288 5.542,0 10.646,-1.84 10.646,-7.915 v -12.095 c 0,-1.116 0.143,-4.819 0.439,-5.353 h -5.887 c -0.095,0.391 -0.19,1.9 -0.238,2.291 h -0.093 c -2.196,-2.291 -4.084,-2.778 -7.289,-2.778 -5.15,0 -8.652,2.826 -8.652,7.537 m 15.786,2.136 v 1.211 h -5.828 c -2.527,0 -4.177,-0.867 -4.177,-3.051 0,-2.088 1.698,-3.167 4.474,-3.167 4.759,0 5.531,2.337 5.531,5.007"
           style="fill:#ffffff;fill-opacity:1;fill-rule:nonzero;stroke:none"
           id="path420" /><path
           d="m 1103.914,1560.518 h 5.922 v -6.314 h -5.922 z m 0,-10.112 h 5.922 v -24.875 h -5.922 z"
           style="fill:#ffffff;fill-opacity:1;fill-rule:nonzero;stroke:none"
           id="path422" /><path
           d="m 1116.981,1550.407 h 5.781 v -3.062 h 0.104 c 1.653,2.385 4.273,3.548 7.037,3.548 5.59,0 8.701,-3.488 8.701,-9.422 v -15.939 h -5.919 v 14.432 c 0,3.738 -1.616,5.732 -4.618,5.732 -3.262,0 -5.151,-1.994 -5.151,-6.219 v -13.945 h -5.935 z"
           style="fill:#ffffff;fill-opacity:1;fill-rule:nonzero;stroke:none"
           id="path424" /></g></g><g
       id="g438"><g
         id="g440"
         clip-path="url(#clipPath444)"><g
           id="g446"
           transform="matrix(88.81889,0,0,88.81889,1038.564,170.1104)" /></g></g></g></svg>
